# xmcd
#
# Track frame offsets:
#	150
#	15460
#	32559
#	51211
#	69478
#	89153
#	107351
#	127138
#	143493
#	158850
#
# Disc length: 2260 seconds
#
# Revision: 0
# Processed by: cddbd v1.5.2PL0 Copyright (c) Steve Scherf et al.
# Submitted via: audiograbber 1.83.01
#
DISCID=8008d20a
DTITLE=The Moonclovers - 115 Bis
DYEAR=2007
DGENRE=Electronic
TTITLE0=Pixel
TTITLE1=Caffe Latte
TTITLE2=Ground Zero
TTITLE3=Lounge Bar
TTITLE4=Dublin
TTITLE5=Copenhague
TTITLE6=So Con
TTITLE7=115 Bis
TTITLE8=Sagittaire
TTITLE9=Red Nose
EXTD=
EXTT0=
EXTT1=
EXTT2=
EXTT3=
EXTT4=
EXTT5=
EXTT6=
EXTT7=
EXTT8=
EXTT9=
PLAYORDER=
